C:/Program Files/Krita (x64)/bin/ffmpeg.exe -hide_banner -y -y -r 24 -start_number 0 -start_number_range 1 -i D:/Users/3439167/Pictures/quadro%04d.png -c:v libopenh264 -b:v 5000k D:/Users/3439167/Pictures/teste.mkv
=====================================================
Input #0, image2, from 'D:/Users/3439167/Pictures/quadro%04d.png':
  Duration: 00:00:01.60, start: 0.000000, bitrate: N/A
  Stream #0:0: Video: png, rgba(pc), 1756x1240 [SAR 11811:11811 DAR 439:310], 25 fps, 25 tbr, 25 tbn, 25 tbc
Stream mapping:
  Stream #0:0 -> #0:0 (png (native) -> h264 (libopenh264))
Press [q] to stop, [?] for help
[libopenh264 @ 0000019681631840] Slice count will be set automatically
[libopenh264 @ 0000019681631840] [OpenH264] this = 0x0000019681646320, Warning:bEnableFrameSkip = 0,bitrate can't be controlled for RC_QUALITY_MODE,RC_BITRATE_MODE and RC_TIMESTAMP_MODE without enabling skip frame.
Output #0, matroska, to 'D:/Users/3439167/Pictures/teste.mkv':
  Metadata:
    encoder         : Lavf58.76.100
  Stream #0:0: Video: h264 (H264 / 0x34363248), yuv420p(tv, progressive), 1756x1240 [SAR 1:1 DAR 439:310], q=2-31, 5000 kb/s, 24 fps, 1k tbn
    Metadata:
      encoder         : Lavc58.134.100 libopenh264
    Side data:
      cpb: bitrate max/min/avg: 5000000/0/5000000 buffer size: 0 vbv_delay: N/A
frame=    1 fps=0.0 q=-0.0 size=       1kB time=00:00:00.00 bitrate=4792.0kbits/s speed=0.0543x    frame=   24 fps=0.0 q=-0.0 size=       1kB time=00:00:00.95 bitrate=   5.0kbits/s speed= 1.8x    frame=   40 fps=0.0 q=-0.0 Lsize=     229kB time=00:00:01.62 bitrate=1153.6kbits/s speed=2.05x    
video:228kB audio:0kB subtitle:0kB other streams:0kB global headers:0kB muxing overhead: 0.395210%
